<svg width="119" height="129" viewBox="0 0 119 129" fill="none" xmlns="http://www.w3.org/2000/svg">
<path d="M4.5 58.8598V33.8598L13.75 38.8598M23 100.36V61.8598M13.75 38.8598L23 43.8598V61.8598M13.75 38.8598V69.8598L4.5 77.8598V96.3598M23 61.8598L31.5 72.3598V110.36L40.5 115.36V57.8598M13.75 80.8598V101.36M31.5 47.3598V58.8598M45.5 56.3598L50 58.8598V116.36" stroke="#0A043F" stroke-width="3"/>
<path d="M10 63.8598C10 66.6213 7.76142 68.8598 5 68.8598C2.23858 68.8598 0 66.6213 0 63.8598C0 61.0984 2.23858 58.8598 5 58.8598C7.76142 58.8598 10 61.0984 10 63.8598ZM2.26416 63.8598C2.26416 65.3708 3.48904 66.5957 5 66.5957C6.51096 66.5957 7.73584 65.3708 7.73584 63.8598C7.73584 62.3489 6.51096 61.124 5 61.124C3.48904 61.124 2.26416 62.3489 2.26416 63.8598Z" fill="#0A043F"/>
<path d="M28 105.86C28 108.621 25.7614 110.86 23 110.86C20.2386 110.86 18 108.621 18 105.86C18 103.098 20.2386 100.86 23 100.86C25.7614 100.86 28 103.098 28 105.86ZM20.2642 105.86C20.2642 107.371 21.489 108.596 23 108.596C24.511 108.596 25.7358 107.371 25.7358 105.86C25.7358 104.349 24.511 103.124 23 103.124C21.489 103.124 20.2642 104.349 20.2642 105.86Z" fill="#0A043F"/>
<path d="M55 120.86C55 123.621 52.7614 125.86 50 125.86C47.2386 125.86 45 123.621 45 120.86C45 118.098 47.2386 115.86 50 115.86C52.7614 115.86 55 118.098 55 120.86ZM47.2642 120.86C47.2642 122.371 48.489 123.596 50 123.596C51.511 123.596 52.7358 122.371 52.7358 120.86C52.7358 119.349 51.511 118.124 50 118.124C48.489 118.124 47.2642 119.349 47.2642 120.86Z" fill="#0A043F"/>
<path d="M46 53.8598C46 56.6213 43.7614 58.8598 41 58.8598C38.2386 58.8598 36 56.6213 36 53.8598C36 51.0984 38.2386 48.8598 41 48.8598C43.7614 48.8598 46 51.0984 46 53.8598ZM38.2642 53.8598C38.2642 55.3708 39.489 56.5957 41 56.5957C42.511 56.5957 43.7358 55.3708 43.7358 53.8598C43.7358 52.3489 42.511 51.124 41 51.124C39.489 51.124 38.2642 52.3489 38.2642 53.8598Z" fill="#0A043F"/>
<path d="M110 48.3598L60.5 75.8598V82.3598L64.5 84.8598L114 56.8598V66.3598L82 84.8598L75.5 98.3598M75.5 98.3598L60.5 107.86V117.61M75.5 98.3598L110 79.8598M83 115.86L60.5 127.36V117.61M60.5 117.61L87.5 102.36L100 106.36L115.5 97.3598M59 97.3598L69 92.8598M115.5 86.8598L98 96.3598" stroke="#30ADD9" stroke-width="2"/>
<path d="M119 45.8598C119 48.6213 116.761 50.8598 114 50.8598C111.239 50.8598 109 48.6213 109 45.8598C109 43.0984 111.239 40.8598 114 40.8598C116.761 40.8598 119 43.0984 119 45.8598ZM111.264 45.8598C111.264 47.3708 112.489 48.5957 114 48.5957C115.511 48.5957 116.736 47.3708 116.736 45.8598C116.736 44.3489 115.511 43.124 114 43.124C112.489 43.124 111.264 44.3489 111.264 45.8598Z" fill="#30ADD9"/>
<path d="M119 76.8598C119 79.6213 116.761 81.8598 114 81.8598C111.239 81.8598 109 79.6213 109 76.8598C109 74.0984 111.239 71.8598 114 71.8598C116.761 71.8598 119 74.0984 119 76.8598ZM111.264 76.8598C111.264 78.3708 112.489 79.5957 114 79.5957C115.511 79.5957 116.736 78.3708 116.736 76.8598C116.736 75.3489 115.511 74.124 114 74.124C112.489 74.124 111.264 75.3489 111.264 76.8598Z" fill="#30ADD9"/>
<path d="M92 112.86C92 115.621 89.7614 117.86 87 117.86C84.2386 117.86 82 115.621 82 112.86C82 110.098 84.2386 107.86 87 107.86C89.7614 107.86 92 110.098 92 112.86ZM84.2642 112.86C84.2642 114.371 85.489 115.596 87 115.596C88.511 115.596 89.7358 114.371 89.7358 112.86C89.7358 111.349 88.511 110.124 87 110.124C85.489 110.124 84.2642 111.349 84.2642 112.86Z" fill="#30ADD9"/>
<path d="M65 86.8598C65 89.6213 62.7614 91.8598 60 91.8598C57.2386 91.8598 55 89.6213 55 86.8598C55 84.0984 57.2386 81.8598 60 81.8598C62.7614 81.8598 65 84.0984 65 86.8598ZM57.2642 86.8598C57.2642 88.3708 58.489 89.5957 60 89.5957C61.511 89.5957 62.7358 88.3708 62.7358 86.8598C62.7358 85.3489 61.511 84.124 60 84.124C58.489 84.124 57.2642 85.3489 57.2642 86.8598Z" fill="#30ADD9"/>
<path d="M22 27.8598C22 30.6213 19.7614 32.8598 17 32.8598C14.2386 32.8598 12 30.6213 12 27.8598C12 25.0984 14.2386 22.8598 17 22.8598C19.7614 22.8598 22 25.0984 22 27.8598ZM14.2642 27.8598C14.2642 29.3708 15.489 30.5957 17 30.5957C18.511 30.5957 19.7358 29.3708 19.7358 27.8598C19.7358 26.3489 18.511 25.124 17 25.124C15.489 25.124 14.2642 26.3489 14.2642 27.8598Z" fill="#83EAE7"/>
<path d="M49 11.8598C49 14.6213 46.7614 16.8598 44 16.8598C41.2386 16.8598 39 14.6213 39 11.8598C39 9.09842 41.2386 6.85985 44 6.85985C46.7614 6.85985 49 9.09842 49 11.8598ZM41.2642 11.8598C41.2642 13.3708 42.489 14.5957 44 14.5957C45.511 14.5957 46.7358 13.3708 46.7358 11.8598C46.7358 10.3489 45.511 9.12401 44 9.12401C42.489 9.12401 41.2642 10.3489 41.2642 11.8598Z" fill="#83EAE7"/>
<path d="M94 16.8598C94 19.6213 91.7614 21.8598 89 21.8598C86.2386 21.8598 84 19.6213 84 16.8598C84 14.0984 86.2386 11.8598 89 11.8598C91.7614 11.8598 94 14.0984 94 16.8598ZM86.2642 16.8598C86.2642 18.3708 87.489 19.5957 89 19.5957C90.511 19.5957 91.7358 18.3708 91.7358 16.8598C91.7358 15.3489 90.511 14.124 89 14.124C87.489 14.124 86.2642 15.3489 86.2642 16.8598Z" fill="#83EAE7"/>
<path d="M84 53.8598C84 56.6213 81.7614 58.8598 79 58.8598C76.2386 58.8598 74 56.6213 74 53.8598C74 51.0984 76.2386 48.8598 79 48.8598C81.7614 48.8598 84 51.0984 84 53.8598ZM76.2642 53.8598C76.2642 55.3708 77.489 56.5957 79 56.5957C80.511 56.5957 81.7358 55.3708 81.7358 53.8598C81.7358 52.3489 80.511 51.124 79 51.124C77.489 51.124 76.2642 52.3489 76.2642 53.8598Z" fill="#83EAE7"/>
<path d="M21 29.8598L70.5 58.8598L75.5 56.3598V51.3598L26.5 21.8598L35 16.8598L66.5 35.8598H82.5M82.5 35.8598L49 14.3598M82.5 35.8598L96.5 43.8598L105.75 38.3598M93 19.3598L115 32.8598L105.75 38.3598M105.75 38.3598L79 21.8598L77 10.3598L61 0.859848M51.5 5.85985L70.5 16.8598M79 42.8598L89.5 49.3598" stroke="#83EAE7" stroke-width="2"/>
</svg>
